<svg width="122" height="32" viewBox="0 0 122 32" fill="none" xmlns="http://www.w3.org/2000/svg">
<path d="M121.407 31.6263H117.101L112.078 17.8334H104.241L100.62 31.6263H98.6045L106.298 1.76828L110.085 0.373047L121.407 31.6263ZM111.481 16.1592L107.481 6.28068L104.622 16.1592H111.481Z" fill="#F8DEC8"/>
<path d="M94.8236 31.6265H90.6778V3.52244L81.6287 11.8141L72.6593 3.6819C72.6992 5.75482 72.8586 12.0533 73.0181 16.2789C73.2174 22.1389 73.7356 31.6265 73.7356 31.6265H70.4668C70.4668 31.6265 70.7458 22.0592 70.8654 16.1194C70.9452 10.2993 71.1046 0.851562 71.1046 0.851562H75.4897L83.5422 7.94734L91.3555 0.891426L94.8236 0.851562V31.6265Z" fill="#F8DEC8"/>
<path d="M65.93 31.6265H52.3364V0.851562H65.4118V4.35959C61.3457 3.1238 59.9106 2.80489 56.3228 2.20693V14.5647L62.9004 13.9269V16.9167L56.3228 16.1593V30.2313C60.07 29.6732 61.7044 29.3144 65.93 28.0387V31.6265Z" fill="#F8DEC8"/>
<path d="M46.465 31.6265H37.695C29.5627 31.6265 25.6162 28.557 25.6162 21.3815V0.851562H29.6026V20.3849C29.6026 27.0023 33.3897 30.0319 39.8078 30.0319H42.4786V0.851562H46.465V31.6265Z" fill="#F8DEC8"/>
<path d="M-0.000188828 0.85202L8.76987 0.85202C16.9021 0.85202 20.8486 3.92154 20.8486 11.097L20.8486 31.627H16.8622L16.8622 12.0936C16.8622 5.47623 13.0752 2.44658 6.65708 2.44658L3.9862 2.44658L3.9862 31.627H-0.000188828L-0.000188828 0.85202Z" fill="#F8DEC8"/>
</svg>